<?xml version="1.0" encoding="utf-8"?>
<!-- Generator: Adobe Illustrator 22.1.0, SVG Export Plug-In . SVG Version: 6.00 Build 0)  -->
<svg version="1.1" xmlns="http://www.w3.org/2000/svg" xmlns:xlink="http://www.w3.org/1999/xlink" x="0px" y="0px"
	 viewBox="0 0 39.7 39.7" style="enable-background:new 0 0 39.7 39.7;" xml:space="preserve">
<style type="text/css">
	.st0{fill:#7F7F7F;stroke:#000000;stroke-width:2;stroke-miterlimit:10;}
	.st1{fill:#0DA1BC;stroke:#000000;stroke-width:2;stroke-miterlimit:10;}
</style>
<g id="Layer_2">
	<circle class="st0" cx="-99.6" cy="19.8" r="14.2"/>
	<circle class="st0" cx="-159.3" cy="19.8" r="14.2"/>
	<circle class="st0" cx="-39.9" cy="19.8" r="14.2"/>
	<circle class="st0" cx="19.8" cy="19.8" r="14.2"/>
</g>
<g id="Layer_1">
	<path class="st1" d="M-54,19.8c0,3.8,1.4,7.6,4.3,9.9l9.9-9.9l9.9,9.9c2.4-2.4,4.3-6.1,4.3-9.9c0-8-6.1-14.2-14.2-14.2
		C-47.9,5.7-54,11.8-54,19.8z"/>
	<path class="st1" d="M-169.2,9.9l9.9,9.9l9.9-9.9c-2.4-2.8-6.1-4.3-9.9-4.3S-166.8,7.1-169.2,9.9z"/>
	<path class="st1" d="M-113.7,19.8h28.3c0-8-6.1-14.2-14.2-14.2C-107.6,5.7-113.7,11.8-113.7,19.8z"/>
	<circle class="st1" cx="19.8" cy="19.8" r="14.2"/>
</g>
</svg>
