<?xml version="1.0" encoding="utf-8"?>
<!-- Generator: Adobe Illustrator 22.1.0, SVG Export Plug-In . SVG Version: 6.00 Build 0)  -->
<svg version="1.1" id="Layer_1" xmlns="http://www.w3.org/2000/svg" xmlns:xlink="http://www.w3.org/1999/xlink" x="0px" y="0px"
	 viewBox="0 0 39.7 39.7" style="enable-background:new 0 0 39.7 39.7;" xml:space="preserve">
<style type="text/css">
	.st0{fill:#FFFFFF;stroke:#000000;stroke-miterlimit:10;}
</style>
<path class="st0" d="M9,11.5l1-0.5c2.1-1.1,4.5-1.6,7-1.6c1.5,0,3.1,0.2,4.5,0.7l1.1,0.3l-1.5,4.5L20,14.5c-1.2-0.5-2.5-0.7-3.9-0.7
	c-1.5,0-3.1,0.3-4.4,0.9l-1,0.4L9,11.5z"/>
<path class="st0" d="M2,20.5l0.4-1.1c0.9-2.4,2.4-4.6,4.4-6.3l0.9-0.8l2.5,3.1l-1,0.7c-1.6,1.2-2.8,2.8-3.6,4.6l-0.5,1L2,20.5z"/>
<polygon class="st0" points="1.4,26.3 1.5,21.9 4.9,22.4 4.5,26.3 "/>
<polygon class="st0" points="30.8,29.4 26.8,31.5 23.3,29.8 27.4,27.7 23.3,25.7 26.8,24 30.8,26 34.9,24 38.3,25.7 34.2,27.7 
	38.3,29.8 34.9,31.5 "/>
<path class="st0" d="M30,26.3l-2.8-2.7l-0.1-0.4c-0.4-3-2.2-5.8-4.6-7.5l-0.9-0.6l2.6-4.1l1,0.6c3.9,2.3,6.7,6.3,7.5,10.9l0.1,0.4
	l-1.9,4.2L30,26.3z"/>
</svg>
