<?xml version="1.0" encoding="utf-8"?>
<!-- Generator: Adobe Illustrator 22.1.0, SVG Export Plug-In . SVG Version: 6.00 Build 0)  -->
<svg version="1.1" id="Layer_1" xmlns="http://www.w3.org/2000/svg" xmlns:xlink="http://www.w3.org/1999/xlink" x="0px" y="0px"
	 viewBox="0 0 39.7 39.7" style="enable-background:new 0 0 39.7 39.7;" xml:space="preserve">
<style type="text/css">
	.st0{fill:#FFFFFF;stroke:#000000;stroke-miterlimit:10;}
</style>
<path class="st0" d="M17.6,34l-0.4-0.9h-3.4v-3.2l2.6-2.1v-8.5l5.6,5.6v2.9l2.6,2.1v3.2h-3.4L20.7,34H17.6z M8.8,10.1l2.1-2.1
	l5.4,5.4l0.3-0.4h5.1l4.3,5.3l-1.4,0.7h-2.7v0l9,9l-2.1,2.1L8.8,10.1z M13.6,19.1l-1.4-0.7l1.4-1.7l2.5,2.5H13.6z M16.3,12.6l0-0.5
	c0.2-3.2,1.1-6.4,2.8-6.4c1.7,0,2.6,3.2,2.8,6.4l0,0.5H16.3z"/>
</svg>
