<?xml version="1.0" encoding="utf-8"?>
<!-- Generator: Adobe Illustrator 23.0.1, SVG Export Plug-In . SVG Version: 6.00 Build 0)  -->
<svg version="1.1" id="Layer_1" xmlns="http://www.w3.org/2000/svg" xmlns:xlink="http://www.w3.org/1999/xlink" x="0px" y="0px"
	 viewBox="0 0 36 36" style="enable-background:new 0 0 36 36;" xml:space="preserve">
<style type="text/css">
	.st0{fill:#666766;}
	.st1{fill:#FFFFFF;stroke:#000000;stroke-width:0.2;stroke-miterlimit:10;}
	.st2{fill:#FFFFFF;}
	.st3{font-family:'Roboto Condensed';}
	.st4{font-size:10px;}
</style>
<polygon class="st0" points="18,11 13.6,13.6 11,18 13.6,22.4 18,25 22.4,22.4 25,18 25,18 22.4,13.6 "/>
<path class="st1" d="M18,3.2l-0.1,0.2l-4,6.9l0,0v0v0.9v0.2l0.2-0.1L18,9.1l3.9,2.3l0.2,0.1v-0.2v-0.9v0l0,0l-4-6.9L18,3.2z
	 M25.7,13.9L25.7,13.9h-0.9h-0.2l0.1,0.2l2.3,3.9l-2.3,3.9l-0.1,0.2h0.2h0.9h0l0,0l6.9-4l0.2-0.1l-0.2-0.1L25.7,13.9L25.7,13.9z
	 M11.4,13.9h-0.2h-0.9h0l0,0l-6.9,4L3.2,18l0.2,0.1l6.9,4l0,0h0h0.9h0.2l-0.1-0.2L9.1,18l2.3-3.9L11.4,13.9z M22.1,24.6l-0.2,0.1
	L18,26.9l-3.9-2.3l-0.2-0.1v0.2v0.9v0l0,0l4,6.9l0.1,0.2l0.1-0.2l4-6.9l0,0v0v-0.9V24.6z"/>
<text transform="matrix(1 0 0 1 15.4349 21.4733)" class="st2 st3 st4">2</text>
<g id="Layer_2">
</g>
</svg>
