<?xml version="1.0" encoding="utf-8"?>
<!-- Generator: Adobe Illustrator 23.0.1, SVG Export Plug-In . SVG Version: 6.00 Build 0)  -->
<svg version="1.1" id="Layer_1" xmlns="http://www.w3.org/2000/svg" xmlns:xlink="http://www.w3.org/1999/xlink" x="0px" y="0px"
	 viewBox="0 0 10 8" style="enable-background:new 0 0 10 8;" xml:space="preserve">
<style type="text/css">
	.st0{fill:#E6E7E8;}
	.st1{opacity:0.5;}
	.st2{fill:none;stroke:#000000;stroke-width:0.1;stroke-miterlimit:10;}
</style>
<g>
	<path class="st0" d="M7.1,5l0-2.5L5,1.2L2.9,2.5l0,2.5l0.9,0.5v1.1L4,6.8l0.3-0.1l0-1.2l0.3-0.1l0.3,0.1l0,1.2L5,6.8l0.3-0.1l0-1.2
		l0.3-0.1l0.3,0.1v1.2L6,6.8l0.3-0.1V5.5L7.1,5z M4,4.8L3.4,4.5l0-0.7L4,3.5l0.6,0.3l0,0.7L4,4.8z M5.4,4.5l0-0.7L6,3.5l0.6,0.3
		l0,0.7L6,4.8L5.4,4.5z"/>
	<g class="st1">
		<path class="st2" d="M7.1,5l0-2.5L5,1.2L2.9,2.5l0,2.5l0.9,0.5v1.1L4,6.8l0.3-0.1l0-1.2l0.3-0.1l0.3,0.1l0,1.2L5,6.8l0.3-0.1
			l0-1.2l0.3-0.1l0.3,0.1v1.2L6,6.8l0.3-0.1V5.5L7.1,5z M4,4.8L3.4,4.5l0-0.7L4,3.5l0.6,0.3l0,0.7L4,4.8z M5.4,4.5l0-0.7L6,3.5
			l0.6,0.3l0,0.7L6,4.8L5.4,4.5z"/>
	</g>
</g>
</svg>
